<?xml version="1.0" encoding="UTF-8" standalone="no"?>
<!-- Created with Inkscape (http://www.inkscape.org/) -->

<svg
   width="9pt"
   height="12pt"
   viewBox="0 0 3.1750001 4.2333333"
   version="1.1"
   id="svg1277"
   inkscape:version="1.1.2 (0a00cf5339, 2022-02-04)"
   sodipodi:docname="heinerenergie-hochzeitsturm.svg"
   xmlns:inkscape="http://www.inkscape.org/namespaces/inkscape"
   xmlns:sodipodi="http://sodipodi.sourceforge.net/DTD/sodipodi-0.dtd"
   xmlns="http://www.w3.org/2000/svg"
   xmlns:svg="http://www.w3.org/2000/svg">
  <sodipodi:namedview
     id="namedview1279"
     pagecolor="#ffffff"
     bordercolor="#666666"
     borderopacity="1.0"
     inkscape:pageshadow="2"
     inkscape:pageopacity="0.0"
     inkscape:pagecheckerboard="0"
     inkscape:document-units="pt"
     showgrid="false"
     units="pt"
     inkscape:zoom="82.614141"
     inkscape:cx="7.0024331"
     inkscape:cy="8.5881181"
     inkscape:window-width="3840"
     inkscape:window-height="2096"
     inkscape:window-x="0"
     inkscape:window-y="27"
     inkscape:window-maximized="1"
     inkscape:current-layer="layer1" />
  <defs
     id="defs1274" />
  <g
     inkscape:label="Layer 1"
     inkscape:groupmode="layer"
     id="layer1">
    <path
       style="fill:#000000;stroke-width:0.0168092"
       d="M 1.0582791,4.2116737 C 0.87176858,4.1826731 0.57810235,4.0937768 0.43043984,4.0216183 0.26909657,3.9427744 0.14104677,3.8253457 0.09170353,3.7109785 L 0.05348393,3.6223915 0.06558404,2.7483825 C 0.07709077,1.9172696 0.07938742,1.8704162 0.11237778,1.7937273 0.18046393,1.635457 0.37013052,1.5307052 0.5450529,1.5547631 l 0.0815788,0.01122 0.006105,-0.2492981 C 0.63801013,1.1012193 0.64372602,1.0582628 0.6748562,1.0001504 0.75751828,0.84583683 0.89567084,0.76831188 1.0752177,0.7754839 l 0.1008554,0.004028 0.00916,-0.25107951 C 1.1932431,0.3085814 1.1991991,0.26848128 1.2330901,0.20603096 1.3099691,0.06436768 1.4246658,0 1.6002153,0 c 0.1778569,0 0.2899668,0.07023413 0.368575,0.23090398 0.039068,0.0798508 0.044906,0.1156035 0.052307,0.32030476 l 0.00833,0.23042051 0.1280277,0.001105 c 0.142641,0.001233 0.2006505,0.0236761 0.2886517,0.11167729 0.094136,0.0941364 0.1189954,0.17515626 0.1244419,0.40557986 0.00266,0.1124391 0.00579,0.2160911 0.00696,0.2303386 0.00171,0.020784 0.026222,0.025848 0.1239984,0.02562 0.1355369,-3.177e-4 0.2216709,0.033872 0.3003903,0.1192318 0.096128,0.1042359 0.1055541,0.1331348 0.1150641,0.3527582 0.010153,0.2344795 0.015733,0.2244976 -0.1254953,0.2244976 -0.1439428,0 -0.142878,0.00131 -0.142878,-0.1760285 0,-0.1319869 -0.00529,-0.1623496 -0.034839,-0.1999129 -0.027071,-0.034415 -0.049557,-0.04429 -0.1008553,-0.04429 -0.1137477,0 -0.1367625,0.041275 -0.1405908,0.2521386 l -0.00107,0.058832 H 2.4367666 2.3022931 L 2.2938931,1.63322 2.2854831,1.1232625 2.2365151,1.0811645 c -0.038209,-0.032849 -0.060368,-0.039838 -0.1008554,-0.03181 -0.1073655,0.02129 -0.1097053,0.03312 -0.1124473,0.5685337 -0.00136,0.2657958 -0.00342,0.4927202 -0.00457,0.5042771 -0.00149,0.014883 -0.041323,0.021011 -0.1365751,0.021011 H 1.7475902 L 1.7432402,1.240786 1.7388902,0.33839521 1.6947452,0.30367111 c -0.061905,-0.048694 -0.1416627,-0.0451045 -0.1921666,0.00865 l -0.040751,0.0433732 -0.00403,0.87693199 c -0.00222,0.4823132 -0.00765,0.886388 -0.012079,0.8979443 -0.00546,0.014236 -0.048875,0.021012 -0.1346513,0.021012 H 1.1844821 V 1.6460114 1.1404414 L 1.1353472,1.0913066 C 1.0752565,1.0312158 1.0173924,1.0284706 0.95429215,1.0827172 l -0.0471629,0.040545 -0.008405,0.5099575 -0.008405,0.5099568 H 0.76425066 0.63818167 l -0.00959,-0.10926 C 0.61671455,1.8986036 0.60473454,1.8711226 0.54391443,1.8396716 0.50184612,1.8179167 0.48843473,1.8178151 0.43804386,1.8388711 c -0.0317343,0.01326 -0.0657139,0.039084 -0.0755097,0.057387 -0.0213337,0.039862 -0.0601029,1.4742046 -0.0439793,1.6271287 0.009453,0.089662 0.0186965,0.1102574 0.0727766,0.1621514 0.0781069,0.074949 0.19103702,0.1314812 0.37303929,0.186743 0.30761065,0.093399 0.55689225,0.1247393 0.61429255,0.07723 0.0366,-0.030293 0.090708,-0.1462528 0.091206,-0.1954677 1.906e-4,-0.020042 -0.018044,-0.073101 -0.04055,-0.1179078 -0.078199,-0.1556915 -0.067084,-0.3018039 0.050411,-0.6626484 l 0.025198,-0.07739 0.073419,0.016801 c 0.04038,0.00924 0.084088,0.012706 0.097127,0.0077 0.01304,-0.00501 0.03769,-0.055271 0.054776,-0.1117059 0.025191,-0.0832 0.037718,-0.1025593 0.066227,-0.1023503 0.074393,5.718e-4 0.080304,0.019716 0.043157,0.1399829 -0.019125,0.06192 -0.030732,0.11912 -0.025793,0.1271109 0.00818,0.013233 0.043954,0.023378 0.1348165,0.03823 0.022029,0.0036 0.035224,-0.00577 0.039751,-0.028229 0.015903,-0.078893 0.07421,-0.2101153 0.093361,-0.2101153 0.011437,0 0.034187,0.00979 0.050557,0.021764 0.028323,0.02071 0.027972,0.027308 -0.00727,0.1363984 -0.041221,0.1275937 -0.038173,0.134802 0.065442,0.1547443 0.063378,0.012199 0.063736,0.020451 0.00901,0.2081796 -0.1135991,0.3896844 -0.1767158,0.4744907 -0.3910261,0.525398 -0.083421,0.019817 -0.085513,0.021879 -0.122489,0.1207502 -0.047416,0.1267913 -0.1628134,0.2506087 -0.257777,0.2765878 -0.084031,0.022989 -0.196709,0.02126 -0.3699294,-0.00567 z"
       id="path1240" />
  </g>
</svg>
