<?xml version="1.0" encoding="UTF-8" standalone="no"?>
<!-- Created with Inkscape (http://www.inkscape.org/) -->

<svg
   width="20mm"
   height="27mm"
   viewBox="0 0 20 27"
   version="1.1"
   id="svg150969"
   inkscape:version="1.1.2 (0a00cf5339, 2022-02-04)"
   sodipodi:docname="he_yellow.svg"
   xmlns:inkscape="http://www.inkscape.org/namespaces/inkscape"
   xmlns:sodipodi="http://sodipodi.sourceforge.net/DTD/sodipodi-0.dtd"
   xmlns="http://www.w3.org/2000/svg"
   xmlns:svg="http://www.w3.org/2000/svg">
  <sodipodi:namedview
     id="namedview150971"
     pagecolor="#ffffff"
     bordercolor="#666666"
     borderopacity="1.0"
     inkscape:pageshadow="2"
     inkscape:pageopacity="0.0"
     inkscape:pagecheckerboard="0"
     inkscape:document-units="mm"
     showgrid="false"
     inkscape:zoom="5.1633838"
     inkscape:cx="1.3557001"
     inkscape:cy="100.61231"
     inkscape:window-width="1959"
     inkscape:window-height="1682"
     inkscape:window-x="1592"
     inkscape:window-y="242"
     inkscape:window-maximized="0"
     inkscape:current-layer="layer1" />
  <defs
     id="defs150966">
    <filter
       inkscape:collect="always"
       style="color-interpolation-filters:sRGB"
       id="filter149752"
       x="-0.13120775"
       y="-0.091768225"
       width="1.2624155"
       height="1.1835364">
      <feGaussianBlur
         inkscape:collect="always"
         stdDeviation="2.7334746"
         id="feGaussianBlur149754" />
    </filter>
  </defs>
  <g
     inkscape:label="Layer 1"
     inkscape:groupmode="layer"
     id="layer1">
    <path
       d="m 43.766165,6.560779 c -6.90358,0 -13.15353,2.84005 -17.677,7.43201 -4.52496,4.59309 -7.32375,10.93923 -7.32375,17.94913 0,9.92281 9.35265,23.2843 17.35375,34.71526 1.06177,1.51709 2.10005,3.00012 3.08976,4.43713 0,0.003 0.006,0.006 0.006,0.008 0.55458,0.80536 1.09382,1.59617 1.61326,2.37006 0.32757,0.48741 0.64546,0.96605 0.9533,1.4348 0.71286,1.08741 1.379,2.13688 1.98495,3.1413 0.60752,-1.00729 1.27338,-2.05609 1.98476,-3.1413 0.79475,-1.21127 1.65913,-2.48685 2.56982,-3.80925 4.6e-4,-0.001 0,-0.002 0,-0.003 0.98954,-1.43761 2.028,-2.92109 3.09022,-4.43818 8.00087,-11.43096 17.35381,-24.79268 17.35381,-34.71525 0,-7.00991 -2.7993,-13.35605 -7.32359,-17.94914 -4.52345,-4.59196 -10.77343,-7.43201 -17.67722,-7.43201"
       style="fill:#805e1a;fill-opacity:1;fill-rule:evenodd;stroke:none;stroke-width:0.0562052;filter:url(#filter149752)"
       id="path16-7-1-4"
       sodipodi:nodetypes="ccsccccccccccscc"
       transform="matrix(0.3168461,0,0,0.31911686,-3.8668426,-2.901459e-4)" />
    <path
       d="m 10.000296,2.0935055 c -2.1873714,0 -4.1676436,0.9063079 -5.600889,2.3716796 -1.4337153,1.4657326 -2.3205009,3.490893 -2.3205009,5.7278709 0,3.166534 2.9633507,7.430413 5.4984688,11.078225 0.3364177,0.484128 0.6653909,0.957388 0.9789775,1.415962 0,9.57e-4 0.0019,0.0019 0.0019,0.0025 0.1757167,0.257004 0.3465724,0.509366 0.5111545,0.756325 0.1037884,0.155542 0.2045115,0.308284 0.3020491,0.45787 0.2258678,0.34701 0.4369307,0.681914 0.628924,1.00244 0.19249,-0.321441 0.403465,-0.656131 0.628862,-1.00244 0.251815,-0.386537 0.525689,-0.793597 0.814238,-1.215596 1.46e-4,-3.19e-4 0,-6.39e-4 0,-9.58e-4 0.313532,-0.458765 0.642563,-0.932169 0.979124,-1.416297 2.535045,-3.647812 5.498487,-7.911764 5.498487,-11.078221 0,-2.2369816 -0.886947,-4.262142 -2.32045,-5.7278744 C 14.167405,2.9996729 12.187124,2.093365 9.9996843,2.093365"
       style="fill:#ffbb34;fill-opacity:1;fill-rule:evenodd;stroke:none;stroke-width:0.017872"
       id="path16-7-1"
       sodipodi:nodetypes="ccsccccccccccscc" />
    <path
       style="fill:#000000;stroke-width:0.0557478"
       d="M 8.2510071,17.209149 C 7.6346474,17.112624 6.66417,16.816766 6.1761875,16.576593 5.6429988,16.313982 5.2198321,15.923327 5.0567676,15.542663 L 4.9304612,15.247766 4.970442,12.338724 C 5.0084839,9.5724723 5.0160518,9.4165422 5.1250683,9.1612902 5.3500862,8.6345048 5.9768606,8.2858569 6.5549295,8.365901 L 6.8245277,8.403165 6.8446837,7.5734388 C 6.8621899,6.8562641 6.8810058,6.7132774 6.9838773,6.5198704 7.2570438,6.0062676 7.7136022,5.748217 8.3069498,5.7720807 l 0.3332983,0.013306 0.030404,-0.8356905 C 8.6970961,4.2179483 8.7168221,4.0844841 8.8288146,3.876621 9.0828802,3.4051259 9.4619116,3.1908772 10.042051,3.1908772 c 0.587764,0 0.958254,0.2336511 1.21803,0.7685196 0.129114,0.2656073 0.148414,0.3848006 0.17287,1.0661184 l 0.02742,0.7669239 0.423093,0.00336 c 0.471386,0.00336 0.663088,0.078885 0.953903,0.371717 0.311106,0.3132004 0.393247,0.5829977 0.411245,1.349925 0.0089,0.3742442 0.01917,0.7192318 0.02312,0.7666622 0.0056,0.06923 0.08665,0.085873 0.40978,0.085201 0.447906,-9.574e-4 0.732552,0.1128334 0.9927,0.3968441 0.317682,0.3469536 0.348822,0.4431448 0.380251,1.1741235 0.03353,0.7804381 0.05197,0.7472191 -0.414721,0.7472191 -0.475692,0 -0.472172,0.0033 -0.472172,-0.585894 0,-0.4393078 -0.0175,-0.5403657 -0.115136,-0.6653764 -0.08946,-0.114496 -0.16378,-0.1474449 -0.333298,-0.1474449 -0.3759,0 -0.451958,0.1374597 -0.464609,0.8391813 l -0.0036,0.195711 H 12.806508 12.362116 L 12.334352,8.6263162 12.306588,6.9289718 12.144757,6.7888509 C 12.018485,6.6796778 11.945253,6.6563823 11.811459,6.6830094 c -0.35481,0.070889 -0.362543,0.1101656 -0.371604,1.8923152 -0.0046,0.8846495 -0.01124,1.6399604 -0.01521,1.6784364 -0.005,0.0496 -0.136548,0.06988 -0.451339,0.06988 H 10.528903 L 10.514694,7.3201553 10.500154,4.316656 10.35425,4.2011612 C 10.14966,4.0390751 9.8861014,4.0510548 9.7192008,4.231129 L 9.5845342,4.3755803 9.571317,7.2943702 c -0.0073,1.6053141 -0.025115,2.9502098 -0.039912,2.9886918 -0.018166,0.04727 -0.1615337,0.06988 -0.4449809,0.06988 H 8.6680861 V 8.6702236 6.9874948 L 8.5057254,6.8240718 C 8.3071458,6.6240335 8.1159195,6.6150471 7.9073929,6.7941393 L 7.7515429,6.9289341 7.723789,8.6262817 7.696035,10.323618 H 7.2794209 6.8628028 L 6.8310796,9.9599604 C 6.7918282,9.5095653 6.7522269,9.4181062 6.5512377,9.3134233 6.4122101,9.241197 6.3678937,9.2405339 6.2013661,9.3108731 6.0965079,9.3551277 5.9842154,9.4410153 5.9518285,9.5019252 5.8813338,9.6347225 5.7532168,14.408621 5.8064881,14.917634 c 0.031383,0.298557 0.061797,0.366954 0.2405166,0.539692 0.2581307,0.249635 0.6313193,0.437621 1.2327831,0.62155 1.0165593,0.310866 1.8403607,0.415174 2.0300503,0.25695 C 9.4307917,16.234972 9.6096077,15.849045 9.6112584,15.685225 9.6118933,15.618653 9.5516416,15.441919 9.4772546,15.29281 9.2188269,14.774578 9.255576,14.288272 9.6438442,13.087253 l 0.083282,-0.257616 0.242632,0.05591 c 0.1334438,0.02996 0.2778898,0.04226 0.3209848,0.02665 0.04308,-0.01666 0.124554,-0.184062 0.181032,-0.371817 0.08325,-0.276921 0.124652,-0.341356 0.21887,-0.340661 0.245837,0.0016 0.265365,0.06557 0.14263,0.465943 -0.06322,0.206024 -0.101553,0.396444 -0.08523,0.423069 0.02709,0.04393 0.145243,0.07787 0.44553,0.127148 0.07279,0.0133 0.116392,-0.01994 0.131362,-0.09386 0.05254,-0.262605 0.245241,-0.69936 0.308526,-0.69936 0.0378,0 0.112988,0.03327 0.167086,0.07254 0.0936,0.0689 0.09243,0.09086 -0.02412,0.453963 -0.136221,0.424704 -0.126139,0.448697 0.216259,0.515064 0.209454,0.0406 0.210643,0.0679 0.02973,0.692909 -0.375411,1.296999 -0.583994,1.579279 -1.292223,1.748732 -0.275679,0.06589 -0.282586,0.07287 -0.404791,0.401902 -0.156708,0.422006 -0.53805,0.834088 -0.8518735,0.920562 -0.2776945,0.07654 -0.6500653,0.07089 -1.2225074,-0.01994 z"
       id="path1240" />
  </g>
</svg>
